<svg width="15" height="15" viewBox="0 0 15 15" fill="none" xmlns="http://www.w3.org/2000/svg">
<path d="M3.19342 11.8064C3.01443 11.6274 2.99951 11.3464 3.14867 11.1505L3.19342 11.0993L10.2644 4.02828C10.4597 3.83302 10.7762 3.83302 10.9715 4.02828C11.1505 4.20727 11.1654 4.4882 11.0162 4.68418L10.9715 4.73538L3.90052 11.8064C3.70526 12.0016 3.38868 12.0016 3.19342 11.8064Z" fill="black"/>
<path d="M4.9273 4.89377C4.65116 4.89437 4.42683 4.67099 4.42623 4.39485C4.42569 4.14382 4.61025 3.9356 4.85127 3.89937L4.92515 3.89379L10.6168 3.88153C10.8686 3.88099 11.0772 4.06661 11.1126 4.30845L11.1179 4.38256L11.1061 10.0747C11.1055 10.3508 10.8812 10.5742 10.6051 10.5737C10.354 10.5731 10.1466 10.3877 10.1114 10.1465L10.1061 10.0726L10.1166 4.88257L4.9273 4.89377Z" fill="black"/>
</svg>
