<svg width="95" height="92" xmlns="http://www.w3.org/2000/svg">
 <g class="layer">
  <title>Layer 1</title>
  <path id="svg_15" fill="#000000" d="m67.35,2.01c-0.38,6.83 -0.94,14.53 -1.57,21.11l0,46.31c0.01,0.22 -0.05,0.44 -0.17,0.62c-0.13,0.18 -0.31,0.32 -0.52,0.38c-0.21,0.07 -0.44,0.06 -0.65,0c-0.21,-0.07 -0.4,-0.2 -0.54,-0.37c-5.78,-7.63 -8.91,-16.94 -8.9,-26.51l0,-16.92c0,-0.93 0.37,-1.82 1.03,-2.48c0.65,-0.66 1.55,-1.03 2.48,-1.03l1.5,0c-0.69,-7.2 -1.31,-15.73 -1.69,-22.93c-1.44,-0.13 -2.95,-0.19 -4.45,-0.19c-25.21,0 -53.87,20.43 -53.87,45.62c0,19.49 12.6,36.16 30.04,42.74c0.31,-4.95 0.75,-9.84 1.19,-13.98c0.11,-1.02 -0.07,-2.05 -0.53,-2.97c-0.45,-0.93 -1.16,-1.7 -2.04,-2.23c-1.4,-0.85 -2.56,-2.05 -3.36,-3.47c-0.8,-1.43 -1.22,-3.04 -1.22,-4.68l1.38,-22.24c0.06,-0.82 0.75,-3.89 1.63,-3.89c0.88,0 1.25,3.14 1.25,4.08l-0.56,17.86c0,0.48 0.19,0.94 0.53,1.28c0.34,0.34 0.81,0.53 1.29,0.53c0.48,0 0.94,-0.19 1.29,-0.53c0.34,-0.34 0.53,-0.8 0.53,-1.28l0.75,-17.93c0.06,-0.94 0.5,-4.01 1.44,-4.01c0.94,0 1.44,3.14 1.51,4.08l0.69,17.86c0,0.48 0.19,0.94 0.53,1.28c0.34,0.34 0.8,0.53 1.29,0.53c0.48,0 0.94,-0.19 1.28,-0.53c0.34,-0.34 0.53,-0.8 0.53,-1.28l-0.56,-17.8c-0.06,-0.94 0.38,-4.14 1.25,-4.14c0.88,0 1.57,3.07 1.63,3.89l1.38,22.24c0.01,1.65 -0.41,3.27 -1.23,4.7c-0.81,1.43 -1.99,2.62 -3.41,3.45c-0.86,0.55 -1.55,1.32 -2,2.24c-0.44,0.92 -0.62,1.95 -0.5,2.96c0.5,4.7 0.94,10.47 1.38,16.04c2.93,0.58 5.91,0.88 8.9,0.88c25.21,0 48.41,-21.87 48.41,-47.06c0,-20.3 -10.16,-36.66 -27.34,-42.23z"/>
  <text y="44.5" xml:space="preserve" x="77.5" text-anchor="middle" stroke-width="0" id="svg_44" font-size="24" font-family="Serif" fill="#000000"/>
 </g>

</svg>